# xmcd
#
# Track frame offsets:
#	150
#	58945
#	163451
#	196876
#	260308
#
# Disc length: 4015 seconds
#
# Revision: 1
# Processed by: cddbd v1.5.2PL0 Copyright (c) Steve Scherf et al.
# Submitted via: audiograbber 1.83.01
#
DISCID=460fad05
DTITLE=Grateful Dead - 69-03-28 Modesto Jr College, Modesto CA
DYEAR=1900
DGENRE=
TTITLE0=Good Morning Little Schoolgirl
TTITLE1=Dark Star
TTITLE2=St Stephen
TTITLE3=The Eleven
TTITLE4=Death Don't Have No Mercy
EXTD=
EXTT0=
EXTT1=
EXTT2=
EXTT3=
EXTT4=
PLAYORDER=
